<svg version="1.1" xmlns="http://www.w3.org/2000/svg" viewBox="0 0 912.6668296243437 379.3207016584016" width="912.6668296243437" height="379.3207016584016">
  <!-- svg-source:excalidraw -->
  
  <defs>
    <style>
      @font-face {
        font-family: "Virgil";
        src: url("https://excalidraw.com/Virgil.woff2");
      }
      @font-face {
        font-family: "Cascadia";
        src: url("https://excalidraw.com/Cascadia.woff2");
      }
    </style>
  </defs>
  <rect x="0" y="0" width="912.6668296243437" height="379.3207016584016" fill="#ffffff"></rect><g stroke-linecap="round" transform="translate(180.2754154829296 313.85209235209265) rotate(0 121.5 16.5)"><path d="M0 0 C0 0, 0 0, 0 0 M0 0 C0 0, 0 0, 0 0 M-0.87 6.9 C2.41 4.13, 3.71 1.88, 5.12 -0.44 M-0.24 6.42 C1.45 3.97, 4.22 1.33, 4.68 0.26 M1.25 11.9 C3.35 7.22, 6.32 4.01, 9.67 -0.93 M-0.6 11.95 C3.55 8.42, 4.62 6.89, 11.29 0.6 M0.81 16.91 C4.95 16.25, 6.36 11.89, 15.91 2.03 M0.57 19.24 C5.05 13.11, 9.25 8.85, 15.56 0.5 M-1.06 24.65 C6.35 17.74, 12.88 8.94, 21.14 -0.77 M-0.72 23.2 C7.11 17.29, 13.36 10.05, 20.48 -0.09 M1.02 29.8 C8.81 18.68, 16.28 9.87, 25.25 1.99 M-0.38 30.57 C9.22 18.97, 20 7.89, 25.7 0.36 M-0.04 34.27 C14.78 23.24, 25.15 7.43, 30.44 0.07 M1.19 34.13 C8.38 25.26, 17.8 16.9, 32.45 0.48 M9.02 32.45 C14.2 24.68, 22.6 16.58, 38.86 1.35 M7.34 34.45 C17.06 23.33, 24.08 14.14, 36.43 -0.23 M10.87 35.89 C18.36 27.48, 25.45 15.92, 42.82 1.76 M13.18 34.22 C23.47 21.33, 32.99 9.01, 42.03 -0.95 M19.23 34.91 C29.12 21.84, 39.48 11.65, 46.69 1.29 M17.04 34.43 C28.71 23.23, 38.36 10.49, 47.06 0.04 M21.3 34.38 C30.13 26.64, 41.84 13.26, 53.16 1.8 M23.93 33.74 C30 24.93, 39.07 16.56, 52.94 -0.12 M27.5 36.32 C37.11 26.72, 46.23 12.68, 57.08 -0.9 M27.07 35.73 C39.01 23.21, 48.8 11.14, 57.46 0.67 M32.48 36.16 C46.51 23.7, 54.77 10.81, 63.77 0.76 M33.89 34.65 C44.14 21.91, 54.21 9.78, 62.96 -0.04 M38.3 32.88 C48.95 24.12, 56.2 12.98, 66.8 -1.85 M39.06 34.27 C47.09 25.37, 55.12 15.83, 69.06 0.36 M46.03 33.72 C55.24 21.63, 63.15 12.74, 74.36 0.32 M45.02 34.09 C50.92 25.98, 58.4 17.32, 74.89 -0.03 M47.58 36.13 C58.13 27.48, 65.69 19.17, 79 1.93 M49.73 33.93 C54.3 28.1, 60.68 20.87, 79.8 0.02 M53.99 35.67 C64.13 20.2, 78.15 10.48, 84.03 1.24 M55.86 35.4 C62.8 25.93, 69.33 17.41, 85.59 -0.7 M59.3 35.98 C69.92 20.64, 81.3 8.74, 89.25 0 M60.52 34.51 C70.34 24.26, 78.51 12.86, 89.21 -0.23 M64.81 32.7 C70.86 25.09, 79.88 20.03, 97.32 1.39 M66.48 35.13 C74.5 23.92, 83.98 14.34, 94.98 -0.97 M70.88 35.42 C80.19 21.61, 93.77 9.77, 99.53 2.01 M69.88 35.57 C80.82 23.23, 90.14 10.81, 101.34 -0.09 M77.32 35.59 C82.52 26.25, 88.1 21.22, 106.14 -2.27 M75.48 34.04 C84.65 24.96, 93.32 13.52, 107.01 -1.05 M79.11 36.51 C90.79 26.73, 98.52 16.84, 112.2 -0.29 M80.34 35.3 C91.38 23.78, 100.75 13.77, 111.78 -0.03 M86.79 33.22 C95.94 22.43, 109.18 10.65, 115.18 1.05 M87.05 34.08 C95.44 25.44, 102.85 15.78, 116.02 1.32 M90.21 34.45 C102.29 22.72, 115.36 11.57, 120.07 0.97 M91.47 35.67 C102.31 20.79, 114.84 7.95, 122.7 -0.33 M98.87 34.56 C105.89 25.94, 112.21 15.87, 126.48 -0.99 M97.9 33.41 C105.5 24.77, 113.18 14.63, 126.38 0.82 M101.77 35.5 C111.79 25.91, 121.18 16.12, 132.31 -0.29 M102.86 35.28 C108.44 27.07, 114.95 19.94, 131.79 -0.07 M107.64 34.68 C119.71 22.3, 129.26 7.72, 137.54 -1.42 M108.27 33.38 C118.61 22.28, 126.55 12.94, 137.53 0.1 M112.83 35.01 C123.16 21.77, 137.37 8.54, 144.53 -2.02 M113.18 34.49 C120.79 26.13, 126.54 17.22, 143.29 -0.13 M117.56 32.74 C127.15 24.55, 137.41 13.03, 149.89 1.1 M118.99 33.58 C129.33 22.12, 138.4 10.38, 147.6 -0.22 M121.8 35.46 C133.48 27.59, 139.09 17.59, 152.73 -0.11 M123.14 34.34 C134.82 21.43, 147.06 9.65, 152.99 -0.16 M129.52 33.99 C141.71 21.3, 150.32 6.66, 158.51 1 M128.4 34.75 C139.27 23.71, 148.24 10.72, 159.78 0.15 M132.53 36.38 C143.85 26.33, 151.24 16.51, 163.33 1.68 M134.49 33.57 C142 26.42, 148.51 20.02, 165.24 0.36 M138.8 35.78 C145.16 24.25, 152.42 19.16, 169.76 -0.21 M139.4 33.88 C149.23 23.28, 160.89 9.94, 169.32 0.23 M144.25 36.43 C153.38 26.47, 163.33 16, 175.14 1.65 M145.02 33.62 C157.18 21.9, 168.04 8.31, 175.91 -0.83 M148.43 34.3 C157.04 27.6, 164.81 17.1, 179.4 0.08 M149.78 33.89 C158.64 24.49, 169.15 12.84, 180.49 0.73 M153.6 35.33 C163.09 27.64, 166.4 21.49, 185.37 -1.77 M155.58 33.66 C164.46 24.43, 172.49 14.95, 185.43 0.2 M161.83 35.59 C170 23.5, 181.65 11.26, 190.61 -0.41 M159.85 35.65 C166.83 28.1, 175.14 19.44, 191.63 1.07 M164.64 35.93 C174.08 25.93, 186.29 15.1, 195.67 -0.1 M167.07 33.52 C177.25 21.34, 189.78 6.97, 195.79 0.61 M172.84 34.01 C175.65 29.39, 181.53 21.14, 199.98 1.11 M171.5 35.49 C182.18 21.04, 193.86 9.02, 202.11 0.37 M174.83 34.15 C188.64 24.24, 195.55 10.16, 206.07 -0.72 M177.42 34.78 C188.29 22.43, 199.62 8.68, 207.52 -0.27 M182.38 35.3 C190.95 25.75, 200.53 13.94, 211.48 -1.46 M181.81 35.2 C191.42 23.88, 200.44 13.85, 211.36 0.44 M189.02 33 C196.43 21.58, 208.84 8.28, 217.01 -0.96 M186.61 33.68 C194.91 24.46, 203.98 14.04, 216.67 0.12 M191.77 35.27 C201.27 25.39, 206.09 17.82, 222.53 -1.13 M191.42 33.77 C204.3 21.07, 216.29 7.11, 221.84 0.82 M197.49 32.59 C210.46 22.79, 221.76 7.5, 227.33 -2.02 M197.69 34.2 C205.88 24.13, 214.95 13.97, 227.87 0.53 M204.72 33.83 C213.51 23.45, 223.49 11.81, 233.92 0.17 M203.5 34.38 C213.82 22.57, 226.02 8.56, 234.08 -0.27 M209.92 36.15 C222.07 20.74, 232.66 5.27, 239.65 1.72 M207.73 34.99 C217.6 25.56, 225.58 16.47, 238.64 -0.34 M213.36 32.99 C225.46 20.19, 233.67 10, 243.19 2.38 M212.79 35.44 C223.79 22.41, 234.03 11.21, 242.97 -0.14 M217.38 35.96 C224.8 26.71, 233.25 19.44, 243.67 7.78 M218.85 34.43 C223.95 28.75, 230.46 21.22, 243.74 6.21 M224.23 34.83 C232.17 26.82, 236.29 18.98, 242.79 14.33 M224.56 35.52 C227.25 31.04, 232.7 25.26, 242.96 12.41 M230.37 35.42 C234.7 27.3, 238.64 23.61, 244.81 19.96 M229.24 33.59 C233.84 29.21, 236.48 25.35, 242.79 18.3 M235.8 35.23 C238.21 31.34, 239.36 27.52, 242.23 24.32 M235.39 34.5 C238.61 30.45, 241 26.83, 242.85 24.54 M240.6 34.37 C241.83 33.24, 242.59 31.83, 243.38 31.39 M240.47 34.02 C241.3 33.28, 242 32.67, 243.18 31.4" stroke="#868e96" stroke-width="0.5" fill="none"></path><path d="M-0.57 -1.01 C59.4 0.33, 117.98 3.09, 244.03 -0.96 M-0.48 0.78 C63.66 -0.01, 126.34 -1.21, 242.37 0.49 M242.63 -0.49 C241.57 5.38, 242.46 14.06, 243.53 34.58 M242.05 0.5 C243.21 9.46, 242.3 19.46, 243.88 33.9 M241.44 32.1 C166.81 33, 91.55 35.06, -1.28 32.43 M242.39 33.68 C154.23 32.85, 64.38 32.01, -0.51 33.76 M0.1 31.35 C0.9 25.58, -1.53 13.74, -0.01 -0.4 M-0.47 32.26 C-0.77 24.9, -0.25 16.79, 0.11 0.88" stroke="#000000" stroke-width="1" fill="none"></path></g><g stroke-linecap="round" transform="translate(239.48753669505078 150.35209235209265) rotate(270 5.5 17.5)"><path d="M0 0 C0 0, 0 0, 0 0 M0 0 C0 0, 0 0, 0 0 M-0.82 6.85 C2.24 3.56, 2.97 1.95, 4.78 0.52 M-0.27 6.12 C1.79 4.08, 4.24 1.21, 4.6 0.38 M1.71 12.12 C1.69 10.07, 4.8 6.99, 9.71 -1.53 M0.75 12.23 C3.99 7.89, 7.17 3.69, 10.23 -0.72 M-0.15 19.95 C4.7 15.13, 7.98 9.89, 15 3.45 M0.86 17.87 C2.41 14.51, 7.63 10.94, 13.65 2.54 M1.61 23.66 C2.14 19.89, 6.08 17.98, 15.87 6.75 M0.03 24.52 C5.21 18.57, 7.51 14.14, 14.4 8.4 M0.79 30.6 C3.38 27.48, 8.15 23.62, 14.53 12.74 M-0.4 30.86 C2.61 27.31, 7.18 23.23, 13.2 15.46 M1.17 35.89 C2.82 33.52, 8.63 30.43, 12.79 22.59 M0.38 35.83 C4.99 31.14, 8.12 26.52, 12.65 20.93 M5.63 35.59 C7.57 32.57, 10.38 31.33, 13.97 25.53 M6 35.51 C8 33.55, 9.21 32.27, 13.46 27.1" stroke="#868e96" stroke-width="0.5" fill="none"></path><path d="M0.34 -0.05 C3.23 -0.17, 4.5 -0.34, 9.97 0.58 M-0.36 -0.22 C2.13 0, 5.81 -0.43, 10.5 0.49 M11.84 0.24 C12.22 11.85, 13.04 28.49, 10.79 36.26 M11.91 0.53 C11.99 11.82, 12.26 21.83, 11.79 35.58 M11.75 35.36 C7.04 35.35, 4.13 35.99, -0.64 35.52 M11.26 34.46 C7.22 34.51, 4.89 35.14, 0.34 35.14 M-1.28 33.25 C1.02 26.55, -0.35 17.74, -1.85 -0.21 M-0.04 34.69 C-0.69 26.34, -1.29 17.64, -0.41 0.8" stroke="#000000" stroke-width="1" fill="none"></path></g><g stroke-linecap="round" transform="translate(251.88905184656602 152.19516594516608) rotate(270 6.636363636363626 2.954545454545439)"><path d="M0 0 C0 0, 0 0, 0 0 M0 0 C0 0, 0 0, 0 0 M0.49 5.4 C1.27 3.78, 2.39 2.64, 5.1 0.28 M0.05 5.91 C1.49 4.26, 2.51 2.5, 4.64 0.31 M4.9 5.88 C7.19 3.61, 9.05 2.67, 10.79 0.25 M5.23 6.23 C7.13 3.45, 9.67 1.38, 10.74 -0.28 M10.1 5.99 C11.65 4.66, 12.67 3.63, 15.11 0.76 M10.6 6.59 C12.08 4.93, 13.62 3, 15.28 0.74" stroke="#868e96" stroke-width="0.5" fill="none"></path><path d="M0.31 1.14 C2.71 -1.28, 7.96 -0.6, 12.63 -0.77 M0.43 -0.31 C5.72 -0.28, 9.96 0.2, 13.9 0.36 M13.06 0.4 C12.78 1.93, 12.78 4.17, 12.79 6.15 M13.38 0.16 C13.24 1.97, 13.45 3.41, 13.43 6.06 M13.59 6.85 C9.02 5.79, 2.62 5.19, -0.24 5.73 M13.22 5.5 C9.05 6.4, 3.03 5.8, 0.65 5.64 M-0.47 5.39 C-0.31 4.49, 0.07 2.52, 0.03 -0.04 M0.21 5.98 C0.29 4.02, -0.28 1.74, -0.16 0.16" stroke="#000000" stroke-width="1" fill="none"></path></g><g stroke-linecap="round" transform="translate(245.94965790717197 106.74062049062081) rotate(0 11.818181818181813 21.818181818181813)"><path d="M12.08 -0.1 C12.08 -0.1, 12.08 -0.1, 12.08 -0.1 M12.08 -0.1 C12.08 -0.1, 12.08 -0.1, 12.08 -0.1 M2.78 15.01 C6.12 14.29, 7.5 9.35, 12.58 3.13 M3.97 16.1 C6.27 12.77, 10.83 8.72, 13.68 4.13 M0.4 25.54 C6.99 17.08, 11.65 13.65, 14.61 7.09 M2.7 24.39 C7.31 17.65, 10.71 13.78, 16.63 7.3 M3.8 25.4 C9.56 23.18, 12.69 20.16, 18.51 10.39 M3.12 27.22 C8.3 23.44, 11.93 17.26, 17.88 12.22 M4.38 30.66 C9.89 24.51, 13.14 22.65, 22.05 15.59 M5.64 31.62 C10.81 24.46, 16.34 19.06, 20.94 14.55 M8.06 36.01 C13.94 27.94, 18.53 21.77, 20.76 19.07 M8.49 34.66 C13.47 29.19, 18.91 22.68, 22.55 19.56 M12.4 39.45 C14.05 32.4, 17.04 28.78, 23.96 22.69 M11.01 39 C16.34 32.77, 21.06 26.81, 23.83 21.6 M12.07 42.32 C13.95 41.1, 15.17 39.54, 15.64 38.96 M12.05 42.37 C13.12 41.73, 13.85 40.47, 15.52 38.7" stroke="#228be6" stroke-width="0.5" fill="none"></path><path d="M12.33 -0.23 C13.72 4.45, 16.54 7.26, 25.18 21.23 M11 -0.14 C15.26 6.44, 19.34 12.9, 23.48 22.31 M24.04 22.72 C22.74 25.03, 20.36 31.01, 13.14 42.17 M23.91 21.37 C20.79 28.16, 18.85 32.24, 11.47 43.65 M12.43 42.73 C9.06 37.03, 3.76 32.93, 1.27 23.39 M12.91 42.65 C8.17 36.76, 3.73 27.24, -0.77 22.53 M-0.2 23.37 C3.3 14.95, 5.09 12.13, 10.22 -1.68 M0.76 21.38 C4.21 14.91, 9.4 7.35, 12.79 -0.04" stroke="#000000" stroke-width="1" fill="none"></path></g><g stroke-linecap="round" transform="translate(550.6668296243437 50.023448773449104) rotate(0 176 87.5)"><path d="M0 0 C0 0, 0 0, 0 0 M0 0 C0 0, 0 0, 0 0 M-0.24 6.88 C1.79 4.89, 2.34 2.98, 5.29 0.3 M0.12 6.14 C0.69 5.18, 2.15 4.01, 4.59 0.64 M-1.18 10.45 C4.02 10.76, 5.53 7.98, 10.36 0.7 M-0.28 11.43 C3.57 9.24, 5.8 5.84, 10.9 0.36 M-1.05 18.48 C3.31 11.87, 9.08 9.28, 15.89 -0.77 M0.1 18.74 C4.92 12.99, 10.93 6.26, 15.77 0.07 M-1.01 22.55 C8.16 14.28, 16.93 7.02, 22.79 -1.92 M0.91 23.81 C8.4 15.08, 13.93 7.98, 20.47 0.72 M0.67 31.97 C7.38 22.68, 15.4 12.64, 26.9 -0.13 M0.69 30.99 C5.29 23.33, 12.5 15.69, 25.8 -0.23 M0.74 36.28 C11.83 24.99, 23.29 13.08, 32.93 -0.34 M0.04 37.37 C9.91 25.51, 18.86 14.56, 32.89 -0.86 M0.66 42.15 C11.24 30.89, 22.24 17.11, 35.12 0.26 M0.12 42.78 C7 34.53, 14.76 23.86, 37.58 0.25 M-1.47 48.74 C11.81 33.93, 23.37 23.06, 42.38 1.22 M0.21 49.1 C8.68 39.31, 17.57 27.72, 42.18 -0.03 M1.66 53.48 C12.77 38.04, 29.02 23.3, 47 1.95 M0.8 54.91 C15.45 36.25, 32.26 16.35, 47.77 -0.35 M-0.75 59.13 C14.46 47.92, 28.7 30.46, 53.85 -1.25 M-0.11 60.47 C15.3 42.68, 31.23 25.31, 53.98 -0.99 M-1.11 67.6 C16.23 48.13, 34.01 25.28, 57.06 -0.1 M0.14 66.48 C19.82 44.85, 39.87 21.35, 57.26 1.17 M-1.42 71.27 C20.63 52.48, 38.73 29.98, 65.18 -1.32 M0.39 73.23 C24.66 45.54, 50.19 16.7, 64.65 0.59 M0.63 78.29 C26.22 49.76, 47.05 22.18, 69.93 0.48 M0.25 78.89 C18.46 56.41, 38.93 35.76, 68.12 0.05 M2.26 84.4 C24.85 59.35, 47.22 35.15, 75.31 -0.17 M0.23 85.17 C27.81 52.62, 58.19 18.69, 74.26 0.6 M-1.75 89.99 C18.65 69.77, 38.89 48.62, 78.34 -0.54 M0.98 91.34 C22.46 64.17, 47.32 38.56, 78.64 0.56 M-0.51 95.92 C31.94 64.01, 61.74 26.15, 86.24 -0.6 M-0.53 97.9 C18.01 76.47, 37.76 53.91, 85.55 -0.54 M-1.09 104.8 C31.38 68.03, 61.33 34.31, 89.1 0.01 M-0.49 102.83 C26.2 74.9, 50.92 48.1, 90.3 1.03 M-0.49 108.37 C39.09 65.72, 77.18 25.47, 97.09 -0.97 M-0.65 110.8 C27.5 75.9, 58.16 42.75, 94.99 -0.85 M-1.15 117.23 C39.37 68.84, 80.53 23.83, 101.13 -1.29 M0.75 115.88 C35.33 74.49, 69.11 34.47, 100.79 0.85 M1.72 119.97 C33.96 83.64, 70.94 40.26, 106.07 -1.23 M-0.66 122.55 C29.18 88.44, 58.93 54.66, 105.75 0.21 M0.73 128.93 C34.01 90.23, 68.76 51.95, 111.42 -0.45 M-0.35 128.36 C25.17 100.42, 49.13 71.73, 111.02 -0.57 M0.23 135.57 C37.04 86.27, 77.66 42.43, 115.83 -0.2 M0.77 133.16 C30.8 96.34, 62.9 60.89, 116.04 -0.54 M-1.7 139.73 C43.41 93.67, 83.54 42.99, 121.07 -0.06 M0.83 139.38 C27.08 106.86, 57.92 72.95, 122.06 -0.75 M1.27 145.45 C45.44 92.03, 96.69 36.92, 126.05 -0.54 M1.17 145.65 C27.8 112.65, 55.48 81.42, 126.74 0 M-1.41 153.91 C50.2 93.95, 102.95 34.27, 133.21 0.58 M-0.33 152.82 C39.62 105.12, 81.46 58.89, 132.26 0.73 M0.42 159.9 C37.68 116.57, 73.76 72.23, 135.82 1.59 M0.53 157.96 C51.49 101.67, 102.32 43.21, 138.37 0.7 M1.51 164.18 C30.79 128.11, 63.56 87.99, 143.31 -0.08 M-0.18 163.68 C54.75 100.95, 108.72 37.61, 143.91 -0.27 M-0.32 169.19 C33.92 134.41, 63.65 99.96, 147.19 0.35 M-0.53 170.45 C56.19 107.36, 111.46 45.11, 147.37 0.42 M0.58 175.68 C44.29 127.75, 87.26 75.69, 152.78 -0.56 M0.43 175.96 C61.01 108.83, 118.71 43.63, 153.24 -0.42 M6.37 176.46 C46.42 127.94, 85.17 80.24, 159.83 1.17 M6.71 175.5 C63.54 109.18, 121.38 41.78, 158.7 -0.54 M12.64 176.84 C56.73 125.65, 99.81 72.91, 162.84 -1.74 M10.76 176.3 C50.62 129.08, 90.2 81.81, 163.64 -0.93 M17.94 176.24 C55.72 131.34, 95.78 84.44, 169.36 1.01 M16.13 175.67 C69.59 115.86, 122.72 54.93, 169.25 0.19 M20.95 176.75 C85.44 105.35, 144.66 33.4, 176.49 -1.57 M21.69 175.52 C77.6 111.54, 133.23 48, 174.34 0.49 M27.02 176.63 C72.78 123.5, 118.65 70.16, 179.06 0.62 M27.82 175.63 C79.51 116.77, 130.4 55.62, 180.78 -0.48 M33.11 176.9 C77.36 123.79, 123.45 73.79, 186.69 -0.17 M33.65 176.08 C70.58 133.77, 109.26 89.79, 186.44 0.26 M37.65 174.84 C78.7 126.84, 118.53 82.64, 191.42 -0.61 M38.19 175.64 C71.08 134.68, 106.73 93.49, 190.59 -0.08 M42.42 174.03 C82.46 129.42, 123.06 82.14, 194.92 -1.59 M44.31 175.84 C82.59 131.28, 120.78 87.21, 197.01 -0.1 M48.88 174.37 C94.31 123.2, 142.08 71.38, 199.74 0.44 M48.05 176.01 C107.01 108.93, 165.52 41.36, 200.78 0.05 M53.26 175.39 C105.51 116.87, 153.33 57.93, 206.12 -1.88 M54.45 175.65 C109.5 110.07, 166.65 43.41, 206.64 0.12 M59.83 176.48 C106.91 122.48, 154.68 67, 213.41 -1.22 M58.37 176.23 C114.85 110.77, 171.9 45.91, 212.37 0.77 M65.85 176.73 C116.37 116.53, 166 57, 216.86 -1.01 M65.45 175.13 C116.1 115.09, 166.63 55.95, 216.98 -0.02 M68.04 175.2 C112.58 122.36, 158.93 71.35, 222.52 -0.08 M69.48 175.86 C113.52 125.45, 159.05 74.43, 222.73 0.83 M74.59 174.15 C111.34 133.63, 148.31 94.81, 227.17 -1.13 M75.06 175.23 C129.38 113.32, 183.55 51.31, 228.12 -0.56 M81.24 175.88 C111.22 142.46, 144.08 105.77, 233.24 1.23 M80.14 175.3 C112.82 137.17, 146.31 99.54, 233.23 -0.52 M86.63 175.91 C115.4 140.57, 147.23 104.39, 238.19 -0.76 M86.71 175.63 C140.34 111.8, 195.96 48.36, 238.85 0.93 M92.04 176.62 C130.16 130.16, 168.94 84.58, 242.57 0.46 M90.16 175.04 C142.18 114.49, 194.95 55.14, 243.27 0.62 M96.5 177.1 C149.73 116.2, 201.62 54.97, 249.73 0.53 M96.79 175.67 C155.29 110.9, 211.46 44.2, 248.39 0.42 M103.27 176.68 C140.77 130.28, 181.69 84.05, 253.47 0.75 M101.22 176.4 C140.42 130.44, 180.83 84.7, 254.56 0.18 M107.49 175.61 C162.32 113.37, 220.08 48.79, 258.03 1.51 M106.71 175.89 C160.31 112.58, 214.68 51.49, 260.08 -0.41 M112.76 174.85 C152.79 129.93, 194.14 81.15, 266.46 -1.18 M112.61 175.72 C155.09 127.43, 195.86 77.61, 265.16 0.48 M115.61 177.54 C165.67 116.48, 217.95 60.05, 270.18 1.41 M117.92 175.85 C164.29 121.53, 211.99 66.9, 269.66 0.23 M121.82 174.47 C171.42 116.85, 223.36 57.86, 274.53 0.21 M122.11 175.26 C165.7 124.06, 209.8 72.73, 275.43 -0.81 M127.66 176.38 C169.74 129.81, 209.35 80.91, 281.55 -1.04 M127.1 176.19 C159.99 139.92, 193.84 102.25, 280.62 0.8 M133.51 175 C184.64 114.51, 240.12 53.82, 285.12 0.63 M133.61 175.64 C182.75 120.66, 230.54 65.93, 287.15 0.41 M138.52 175.36 C194.87 107.34, 254.71 41.61, 290.95 0.82 M138.1 176.38 C183.2 125.84, 228.59 74.41, 291.57 0.65 M144.21 177.09 C177.06 141.8, 208.11 105.12, 298.15 1.23 M144.36 175 C199.24 111.38, 255.51 48.17, 297.64 0.22 M149.05 176.35 C187.39 131.21, 229.02 84.77, 302.34 -0.35 M148.6 176.36 C197.08 120.85, 245.1 65.88, 302.12 0.83 M155.45 174.13 C190.94 133.34, 224.77 93.54, 307.68 0.1 M154.38 174.88 C208.59 113.34, 262.52 52.26, 307.34 -0.61 M161.03 174.82 C195.72 136.79, 230.45 95.6, 313.01 -0.57 M159.42 175.7 C209.93 118.67, 261.04 60.16, 312.07 -0.06 M165.49 174.22 C220.09 110, 277.68 44.92, 317.16 0.77 M165.5 176.01 C199.86 138.27, 232.06 101.84, 318.99 -0.84 M168.72 175.02 C202.41 137.15, 237.48 96.18, 322.01 0.24 M170.28 176.1 C220.66 120.17, 268.83 64.77, 323.91 -0.04 M177.68 174.82 C234.4 107.1, 294.55 38.41, 327.59 0.34 M175.53 175.81 C233.48 111.11, 289.34 47.12, 328.29 0.37 M180.82 174.8 C228.73 124.55, 276.41 69.18, 335.22 0 M180.65 175.51 C228.81 121.19, 277.92 64.52, 333.55 0.39 M185.37 174.56 C224.58 129.58, 264.39 85.24, 339.19 1.31 M185.81 175.93 C224.96 131.6, 262.06 88.56, 340.02 -0.72 M191.76 177.4 C245 111.53, 302.74 44.91, 343.42 -0.51 M192.27 175.72 C242.72 116.23, 294.16 58.04, 344.68 0.77 M197.15 174.97 C230.32 138.59, 260.38 101.21, 349.09 0.53 M197.02 174.69 C256.86 106.49, 316.58 36.71, 349.57 0.96 M203.64 176.27 C263.12 106.73, 322.1 38.51, 353.02 2.19 M201.57 176.46 C237.53 136.26, 270.62 98.32, 353.07 1.35 M208.21 175.38 C240.97 135.69, 273.42 96.91, 352.38 8.96 M208.32 174.69 C259.37 116.53, 309.41 60.06, 353.43 7.75 M214.45 177.1 C243.04 137.95, 274.5 102.2, 355.58 11.79 M212.33 176.21 C268.58 113.44, 321.58 51.34, 354.06 13.33 M218.2 175.34 C272.4 113.72, 328.29 52.01, 352.37 19.33 M217.5 175.94 C266.14 119.31, 313.64 64.03, 353.32 20.13 M222.82 175.54 C274.34 114.71, 325.92 57.45, 352.58 23.67 M222.98 176.56 C258.89 133.4, 296.09 89.58, 353.28 25.87 M228.87 176.98 C270.94 124.97, 316.45 74.29, 353.62 30.99 M227.89 175.25 C263.78 137.62, 297.29 99.8, 353.58 31.54 M234.1 176.59 C264.9 141.61, 296.7 105.55, 351.95 37.99 M234.51 175.74 C274.4 129.71, 313.95 84.36, 353.06 37.42 M238.05 176.78 C283.46 122.96, 328.81 70.09, 354.17 45.35 M238.65 175.51 C266.62 142.73, 294.2 110.22, 354.48 43.18 M243.37 174.32 C278.27 137.09, 313.9 96.33, 352.77 48.97 M245.44 175.67 C266.21 150.67, 288.73 123.31, 354.11 51.14 M248.45 175.47 C273.08 150.06, 299.77 120.43, 354.69 57.75 M249.55 175.97 C277.08 145.93, 302.34 115.72, 354.82 56.92 M256.6 177.01 C278.78 146.73, 304.48 118.29, 354.01 60.71 M255.05 174.75 C286.71 137.76, 318.51 100.99, 354.36 62.51 M260.8 177.3 C295.41 134.03, 331.83 93.67, 352.46 68.75 M259.61 175.92 C292.3 138.91, 323.23 100.76, 354.49 68.9 M264.83 177.35 C293 147.1, 317.11 114.63, 355.4 73.98 M266.35 174.92 C300.77 136.95, 334.14 98.65, 354.58 75.33 M271.97 175.9 C302.94 138.1, 333.14 101.1, 353.8 79.06 M270.05 175.7 C304.6 137.84, 336.64 99.86, 354.09 81.53 M278.21 174.44 C299.22 149, 322.43 122.44, 354.75 84.97 M277.02 174.68 C291.77 156.16, 307.85 138.86, 354.77 87.41 M280.89 176.33 C297.47 158.2, 315.9 135.9, 352.17 92.09 M281.29 175.71 C308.67 143.93, 336.76 112.76, 353.9 93.05 M287.97 175.79 C300.5 157.98, 315.24 139.9, 353.32 100 M286.47 176.07 C305.11 153.71, 323.97 132.85, 354.45 98.4 M290.6 177.04 C308.03 155.66, 323.87 136.81, 352.78 104.84 M291.97 175.39 C311.5 155.26, 329.03 134.82, 353.6 105.49 M296.44 175.3 C313.08 159.98, 326.93 144.1, 352.42 110.57 M298.81 175.67 C312.7 159.05, 327.07 143.45, 354.34 111.7 M302.23 175.9 C321.95 154.57, 337.81 133, 353.92 118.78 M303.9 176.22 C322.63 152.24, 343.38 129.32, 354.56 116.41 M307.05 175.3 C321.14 158.56, 332.8 144.89, 355.49 123.81 M307.83 175.63 C318.82 163.01, 330.88 150.81, 353.37 124.04 M312.99 176.18 C326.39 165.15, 336.94 152.26, 352.34 130.51 M313.13 176.74 C328.87 158.6, 344.14 141.29, 354.2 130.7 M318.33 176.5 C325.99 166.97, 335.16 155.17, 352.72 133.54 M320.05 174.62 C329.25 165.29, 338.47 152.92, 354.35 135.44 M322.21 176.56 C335.08 166.33, 343.09 155.61, 351.84 142.76 M324.89 175.53 C332.53 167.16, 339.68 158.75, 353.59 142.5 M329.87 176.04 C333.47 171.51, 339.81 165.1, 353.75 147.71 M329.69 174.87 C336.92 169.11, 341.6 160.67, 353.61 147.71 M333.29 177.11 C341.4 171.03, 346.33 164.55, 353.33 154.95 M334.62 176.2 C338.39 171.33, 343.66 167.02, 354.57 154.78 M339.74 174.21 C344.52 170.16, 350.29 161.61, 352.25 159.42 M339 175.91 C343.77 171.69, 347.2 167.77, 352.67 160.47 M344.34 176.77 C347.48 171.58, 351.17 168.41, 354.96 166.08 M345.13 176.2 C348.06 171.98, 351.16 169.2, 353.54 165.53 M350.08 176.43 C350.71 174.89, 352.3 173.96, 353.3 172.6 M350.3 176.21 C351.04 175.39, 352.1 174.43, 353.61 172.4" stroke="#40c057" stroke-width="0.5" fill="none"></path><path d="M-0.41 -1.06 C113.95 0.47, 227.12 0.39, 353.25 -0.25 M0.57 0.33 C136.92 -2.02, 275.36 -1.84, 352.2 0.26 M350.53 -0.87 C354.43 48.98, 351.52 102.64, 353.38 173.99 M352.68 1 C351.87 66.53, 350.87 131.63, 351.7 175.55 M351.95 174.65 C262.15 175.36, 169.96 175.46, -0.15 174.5 M351.35 175.43 C247.78 175.62, 144.13 174.63, 0.05 174.47 M1.04 174.31 C-0.5 126.56, 0.07 81.68, 1.84 1.65 M0.86 175.98 C0.76 107.49, 0.15 40.6, 0.89 -0.69" stroke="#000000" stroke-width="1" fill="none"></path></g><g stroke-linecap="round"><g transform="translate(11.666829624343649 129.0234487734491) rotate(0 269.13998803834437 -0.8130365921091425)"><path d="M-0.14 -0.46 C89.98 -0.34, 449.92 0.38, 539.95 0.26 M-1.67 -1.75 C88.35 -1.96, 448.81 -1.94, 538.97 -1.73" stroke="#c92a2a" stroke-width="1" fill="none"></path></g></g><g stroke-linecap="round" transform="translate(113.82844578595973 199.10209235209277) rotate(270 100.08333333333337 17.333333333333314)"><path d="M0 0 C0 0, 0 0, 0 0 M0 0 C0 0, 0 0, 0 0 M-0.56 6.21 C0.5 5.04, 2.32 2.38, 4.54 -0.17 M0.13 6.04 C0.79 5.19, 2.84 3.59, 4.65 0.53 M1.55 13.42 C3.18 9.36, 6.86 5.95, 10.28 1.43 M0.9 11.88 C4.38 8.16, 7.41 3.57, 10.88 0.51 M-0.85 20.18 C4.06 13.33, 10.34 5.65, 15.62 1.28 M0.54 18.68 C3.84 15.18, 5.61 11.26, 16.03 -0.32 M-0.09 22.37 C2.75 18.81, 8.06 15.6, 23.03 -0.14 M-0.73 24.22 C5.59 18.37, 11.09 11.15, 22 -0.01 M1.81 32.11 C9.14 20.14, 14.82 12.29, 25.37 1.94 M-0.77 29.75 C6.62 24.03, 11.79 18.46, 25.88 -0.41 M-0.11 34.93 C11.23 23.39, 24.72 11.44, 31.88 -0.16 M1.91 34.44 C7.17 27.21, 14.75 18.54, 31.31 0.88 M5.11 37.03 C14.56 22.85, 25.4 15.8, 37.98 1.8 M6.73 34.87 C15.21 23.52, 25.19 12.09, 37.29 0.25 M12.75 34.79 C24.4 22.76, 33.81 9.64, 43.53 1.84 M12.39 36.11 C19.52 26.59, 26.56 17.83, 42.38 0.53 M15.43 37.65 C27.39 24.35, 34.17 17.91, 46.7 -0.25 M15.79 35.22 C27.29 23.91, 37.33 11.59, 47.43 0.61 M22.77 37.28 C32.59 22.33, 40.22 12.28, 54.2 -0.98 M22.59 35.96 C32.48 23.88, 42.81 11.53, 53.79 -0.11 M29.25 37.56 C36.83 25.43, 47.68 13.14, 59.19 -1.24 M26.96 35.45 C37.05 23.13, 47.9 11.02, 58.02 -0.15 M34.49 34.49 C41.97 23.44, 48.82 13.11, 63.5 -0.35 M32.79 35.58 C40.15 26.82, 49.31 16.97, 64.14 0.58 M39.07 34.16 C42.89 29.72, 50.3 21.65, 67.52 -0.11 M37.41 35.63 C49.31 21.68, 61.87 8.65, 68.31 0.31 M44.85 36.62 C53.29 27.44, 60.02 17.81, 72.45 1.1 M42.8 35.76 C54.85 22.08, 67.7 7.92, 75.09 -0.06 M46.78 33.91 C56.82 28.75, 61.67 20.86, 78.16 0.3 M49.35 35.55 C59.7 21.93, 71.47 8.75, 80.12 0.56 M53.2 33.94 C62.57 24.29, 71.78 13.93, 85.47 -0.19 M55.01 35.51 C59.41 28.27, 65.49 20.78, 84.35 0.01 M57.68 34.42 C70.7 25.18, 82.66 12.55, 89.99 -0.76 M59.06 35.67 C71.09 22.54, 81.94 7.31, 90.79 0.38 M63.29 34.84 C72.43 27.94, 77.57 20.99, 96.4 1.35 M65.31 35.04 C71.17 26.6, 78.7 19.85, 94.67 0.54 M70.48 34.36 C79.15 25.34, 88.13 11.92, 100.3 0.07 M69.84 36.19 C82.4 20.64, 95.11 6.91, 100.22 -0.28 M77.29 35.78 C84.36 26.78, 90.18 19.08, 106.48 -1.64 M76.19 34.75 C84.17 26.48, 91.56 17.28, 106.85 -0.02 M79.29 35.49 C89.87 26.93, 95 18.34, 110.78 0.22 M81.07 35.98 C90.24 24.26, 100.01 13.6, 111.87 -0.22 M85.11 36.1 C94.94 29.03, 98.44 20.1, 117.69 1.32 M84.98 35.01 C97.66 21.82, 108.81 9.37, 116.07 1.23 M91.63 36.68 C99.72 24.23, 110.96 10.42, 121.52 1.23 M91.15 35.63 C101.72 22.22, 113.08 10.09, 121.72 -0.09 M97.02 36.93 C108.86 24.31, 117.53 10.62, 125.41 1.57 M95.56 36.12 C105.25 24.94, 115.45 12.24, 127.54 -0.37 M102.43 35.88 C111.36 22.04, 121.88 10.51, 133.04 -1.28 M102.52 34.45 C110 25.8, 120.02 14.31, 133.31 0.71 M105.76 35.79 C115.8 27.33, 122.42 17.29, 136.42 1.78 M107.38 35.86 C115.97 23.65, 127.31 12.13, 137.55 0.51 M112.02 36.14 C124.96 21.99, 137.05 10.23, 144.23 0.43 M112.71 35.4 C122.11 23.34, 133.39 10.08, 142.74 -1.05 M119.11 37.53 C125.37 27.01, 132.74 17.03, 149.6 -1.04 M117.08 35.45 C127.15 26.43, 134.45 15.35, 149.08 1.1 M124.14 35.62 C129.09 25.17, 138.52 17.88, 154.43 0.15 M123.24 36.21 C133.21 22.27, 145.18 11.04, 153.64 0.63 M129.26 37.08 C135.24 28.97, 140.83 21.54, 157.21 -0.76 M128.86 35.31 C138.63 25.37, 148.7 13.5, 158.16 0.39 M131.93 33.53 C142.81 24.26, 154.93 10.72, 165.35 -0.18 M132.73 36.27 C144.77 22.79, 154.47 11.51, 164.19 -0.07 M138.8 37.48 C152.86 22.12, 163.38 8.91, 170.94 -0.18 M139.48 36.07 C148.06 25.33, 157.58 14.37, 168.87 0.04 M143.96 36.23 C151.12 26.8, 156.9 20.25, 175.12 -0.59 M143.8 35.67 C157.45 20.76, 169.15 8.03, 174.12 0.25 M150.76 35.86 C157.06 26.54, 166.91 13.63, 179.85 -1.01 M149.2 35.56 C156.84 26.77, 165.67 17.07, 180.35 -0.59 M154.16 35.13 C162.98 25.76, 169.24 17.69, 184.27 -0.95 M154.16 36.24 C163.09 26.88, 170.62 19.17, 185.7 -0.82 M158.52 37.44 C170.62 26.82, 176.82 15.58, 192.45 -1.84 M158.89 35.81 C166.96 26.48, 174.17 19.3, 189.75 0.58 M163.91 36.75 C170.29 27.71, 177.93 20.15, 197.76 0.91 M165.53 34.47 C176.59 22.82, 187.58 10.63, 196.75 -0.49 M171.92 37.54 C180.46 22.02, 193.17 8.45, 201.97 0.57 M170.91 36.06 C177.97 26.86, 184.8 19.4, 200.66 0.08 M175.98 36.71 C185.11 25.24, 192.96 13.59, 201.01 6.07 M176.71 34.59 C183.94 26.5, 189.95 18.85, 201.75 7.06 M179.18 35.56 C186.24 28.34, 192.32 21.28, 200.53 14.36 M180.2 35.75 C187.92 27.25, 194.6 19.76, 200.14 12.95 M188.55 33.71 C189.51 30.6, 193.13 26.62, 203.11 17.4 M186.51 35.5 C192.38 28.89, 197.54 23.01, 201.91 18.5 M192.56 36.56 C195.85 31.3, 197.57 27.04, 200.75 26.3 M191.4 35.52 C195.28 31.3, 198.67 27.93, 201.23 24.32 M196.67 35.99 C197.38 35.1, 198.64 33.94, 201.11 31.19 M196.56 36.08 C197.84 34.6, 199.02 33.44, 200.96 31.45" stroke="#868e96" stroke-width="0.5" fill="none"></path><path d="M-1.03 -1.25 C65.59 0.91, 132.11 1.87, 200.22 0.62 M0.09 -0.49 C39.33 -1.39, 80.92 -0.1, 200.24 0.02 M198.71 -0.91 C198.04 13.28, 198.29 22.72, 201.49 35.39 M200.43 0.14 C199.14 9.07, 199.3 20.8, 199.89 35.21 M201.14 36.07 C130.92 32, 64.1 32.82, -0.9 35.17 M199.56 34.79 C134.78 33.58, 69.79 34.13, -0.55 34.79 M-1.19 36.61 C0.8 27.41, 1.48 18.38, 1.34 -1.87 M-0.85 35.25 C0.46 26.33, 0.77 18.63, 0.76 0.93" stroke="#000000" stroke-width="1" fill="none"></path></g><g transform="translate(621.4224813799952 111.8333333333336) rotate(0 45.5 12.5)"><text x="0" y="18" font-family="Virgil, Segoe UI Emoji" font-size="20px" fill="#000000" text-anchor="start" style="white-space: pre;" direction="ltr">Detector</text></g><g transform="translate(250.58914804666188 316.00000000000034) rotate(0 40 12.5)"><text x="0" y="18" font-family="Virgil, Segoe UI Emoji" font-size="20px" fill="#000000" text-anchor="start" style="white-space: pre;" direction="ltr">X Motor</text></g><g transform="translate(206.42248137999525 134.3333333333336) rotate(0 8 87.5)"><text x="0" y="18" font-family="Virgil, Segoe UI Emoji" font-size="20px" fill="#000000" text-anchor="start" style="white-space: pre;" direction="ltr">Y</text><text x="0" y="43" font-family="Virgil, Segoe UI Emoji" font-size="20px" fill="#000000" text-anchor="start" style="white-space: pre;" direction="ltr"></text><text x="0" y="68" font-family="Virgil, Segoe UI Emoji" font-size="20px" fill="#000000" text-anchor="start" style="white-space: pre;" direction="ltr">M</text><text x="0" y="93" font-family="Virgil, Segoe UI Emoji" font-size="20px" fill="#000000" text-anchor="start" style="white-space: pre;" direction="ltr">O</text><text x="0" y="118" font-family="Virgil, Segoe UI Emoji" font-size="20px" fill="#000000" text-anchor="start" style="white-space: pre;" direction="ltr">T</text><text x="0" y="143" font-family="Virgil, Segoe UI Emoji" font-size="20px" fill="#000000" text-anchor="start" style="white-space: pre;" direction="ltr">O</text><text x="0" y="168" font-family="Virgil, Segoe UI Emoji" font-size="20px" fill="#000000" text-anchor="start" style="white-space: pre;" direction="ltr">R</text></g><g transform="translate(313.089148046662 10) rotate(0 32.5 12.5)"><text x="0" y="18" font-family="Virgil, Segoe UI Emoji" font-size="20px" fill="#000000" text-anchor="start" style="white-space: pre;" direction="ltr">Sample</text></g><g transform="translate(354.7558147133286 125.00000000000034) rotate(0 26 12.5)"><text x="0" y="18" font-family="Virgil, Segoe UI Emoji" font-size="20px" fill="#000000" text-anchor="start" style="white-space: pre;" direction="ltr">Beam</text></g><g stroke-linecap="round"><g transform="translate(332.34617921379174 40.5682513112514) rotate(0 -33.45661378535908 36.518493940835754)"><path d="M-0.32 0.51 C-11.48 12.45, -56.42 60, -67.86 72.24 M1.71 -0.27 C-9.5 11.75, -57.27 61.25, -68.63 73.3" stroke="#000000" stroke-width="1" fill="none"></path></g><g transform="translate(332.34617921379174 40.5682513112514) rotate(0 -33.45661378535908 36.518493940835754)"><path d="M-55.72 46.41 C-60.69 50.8, -60.59 59.01, -69.33 73.19 M-56.85 45.12 C-61.29 54.81, -65.8 65.87, -69.33 74.29" stroke="#000000" stroke-width="1" fill="none"></path></g><g transform="translate(332.34617921379174 40.5682513112514) rotate(0 -33.45661378535908 36.518493940835754)"><path d="M-40.88 60.59 C-49.29 61.72, -52.56 66.71, -69.33 73.19 M-42.01 59.29 C-51.58 64.02, -61.29 70.11, -69.33 74.29" stroke="#000000" stroke-width="1" fill="none"></path></g></g><g stroke-linecap="round"><g transform="translate(173.29077465509556 296.0770865134897) rotate(0 0.0571949560614371 -83.12326201169435)"><path d="M-1.1 0.54 C-1.18 -27.21, -1.04 -138.82, -1.06 -166.79 M0.52 -0.22 C0.87 -27.74, 1.14 -137.57, 1.24 -165.21" stroke="#000000" stroke-width="1" fill="none"></path></g><g transform="translate(173.29077465509556 296.0770865134897) rotate(0 0.0571949560614371 -83.12326201169435)"><path d="M-10.46 -28.95 C-8.75 -22.07, -6.9 -12.88, 0.69 -0.9 M-11.94 -26.69 C-9.21 -18.93, -6.8 -13.06, -1.35 0.9" stroke="#000000" stroke-width="1" fill="none"></path></g><g transform="translate(173.29077465509556 296.0770865134897) rotate(0 0.0571949560614371 -83.12326201169435)"><path d="M10.06 -28.95 C6.62 -22.25, 3.31 -13.06, 0.69 -0.9 M8.58 -26.69 C5.64 -18.94, 2.39 -13.06, -1.35 0.9" stroke="#000000" stroke-width="1" fill="none"></path></g><g transform="translate(173.29077465509556 296.0770865134897) rotate(0 0.0571949560614371 -83.12326201169435)"><path d="M12.31 -138.29 C9.03 -145.76, 5.74 -150.73, 3.03 -166.65 M10.83 -136.03 C8.16 -143.85, 4.94 -153.55, 0.99 -164.86" stroke="#000000" stroke-width="1" fill="none"></path></g><g transform="translate(173.29077465509556 296.0770865134897) rotate(0 0.0571949560614371 -83.12326201169435)"><path d="M-8.21 -138.35 C-6.34 -145.62, -4.47 -150.58, 3.03 -166.65 M-9.69 -136.1 C-6.7 -143.89, -4.26 -153.58, 0.99 -164.86" stroke="#000000" stroke-width="1" fill="none"></path></g></g><g stroke-linecap="round"><g transform="translate(302.69676422688246 484.78283212973076) rotate(89.99999999999994 -1.108386835573242 -116.66061408793274)"><path d="M0.09 0.26 C-0.08 -38.41, -0.86 -192.96, -1.14 -231.59 M-1.32 -0.65 C-1.66 -39.74, -2.6 -195.35, -2.22 -233.58" stroke="#000000" stroke-width="1" fill="none"></path></g><g transform="translate(302.69676422688246 484.78283212973076) rotate(89.99999999999994 -1.108386835573242 -116.66061408793274)"><path d="M-9.88 -28.3 C-6.78 -20.9, -3.65 -10.72, 0.88 -0.09 M-9.48 -28.86 C-6.87 -16.57, -3.43 -6.99, -0.73 -0.19" stroke="#000000" stroke-width="1" fill="none"></path></g><g transform="translate(302.69676422688246 484.78283212973076) rotate(89.99999999999994 -1.108386835573242 -116.66061408793274)"><path d="M10.64 -28.4 C7.79 -20.96, 4.98 -10.75, 0.88 -0.09 M11.04 -28.97 C5.98 -16.5, 1.75 -6.87, -0.73 -0.19" stroke="#000000" stroke-width="1" fill="none"></path></g><g transform="translate(302.69676422688246 484.78283212973076) rotate(89.99999999999994 -1.108386835573242 -116.66061408793274)"><path d="M8.46 -205.81 C5.36 -214.73, 2.51 -220.89, -1.44 -233.94 M8.85 -206.37 C4 -215, -0.27 -226.47, -3.04 -234.04" stroke="#000000" stroke-width="1" fill="none"></path></g><g transform="translate(302.69676422688246 484.78283212973076) rotate(89.99999999999994 -1.108386835573242 -116.66061408793274)"><path d="M-12.06 -205.82 C-9.21 -214.76, -6.11 -220.91, -1.44 -233.94 M-11.67 -206.38 C-8.85 -215.15, -5.45 -226.62, -3.04 -234.04" stroke="#000000" stroke-width="1" fill="none"></path></g></g></svg>